<mxfile host="app.diagrams.net" modified="2022-06-25T17:12:16.223Z" agent="5.0 (Windows NT 10.0; Win64; x64) AppleWebKit/537.36 (KHTML, like Gecko) Chrome/91.0.4472.124 Safari/537.36" etag="59ShPGv4oar43AuGFHaI" version="20.0.3" type="github">
  <diagram id="L-sRHoK8-_lvViuKxiwo" name="Page-1">
    <mxGraphModel dx="782" dy="738" grid="0" gridSize="10" guides="1" tooltips="1" connect="1" arrows="1" fold="1" page="1" pageScale="1" pageWidth="827" pageHeight="1169" math="0" shadow="0">
      <root>
        <mxCell id="0" />
        <mxCell id="1" parent="0" />
        <mxCell id="1uc-oRXtR6JdlQ7MqybF-10" style="edgeStyle=orthogonalEdgeStyle;rounded=0;orthogonalLoop=1;jettySize=auto;html=1;fontSize=14;" parent="1" target="1uc-oRXtR6JdlQ7MqybF-9" edge="1">
          <mxGeometry relative="1" as="geometry">
            <mxPoint x="270.6600000000001" y="218" as="sourcePoint" />
          </mxGeometry>
        </mxCell>
        <mxCell id="1uc-oRXtR6JdlQ7MqybF-7" style="edgeStyle=orthogonalEdgeStyle;rounded=0;orthogonalLoop=1;jettySize=auto;html=1;fontSize=14;" parent="1" source="1uc-oRXtR6JdlQ7MqybF-3" edge="1">
          <mxGeometry relative="1" as="geometry">
            <mxPoint x="180" y="218" as="targetPoint" />
          </mxGeometry>
        </mxCell>
        <mxCell id="1uc-oRXtR6JdlQ7MqybF-3" value="" style="sketch=0;pointerEvents=1;shadow=0;dashed=0;html=1;strokeColor=none;fillColor=#505050;labelPosition=center;verticalLabelPosition=bottom;verticalAlign=top;outlineConnect=0;align=center;shape=mxgraph.office.sites.blog_site;" parent="1" vertex="1">
          <mxGeometry x="20" y="179" width="80" height="78" as="geometry" />
        </mxCell>
        <mxCell id="1uc-oRXtR6JdlQ7MqybF-9" value="Azure Cosmos Db" style="aspect=fixed;html=1;points=[];align=center;image;fontSize=12;image=img/lib/azure2/databases/Azure_Cosmos_DB.svg;" parent="1" vertex="1">
          <mxGeometry x="368" y="178" width="80" height="80" as="geometry" />
        </mxCell>
        <mxCell id="1uc-oRXtR6JdlQ7MqybF-11" value="Azure Functions&lt;br&gt;(Whatsapp)" style="aspect=fixed;html=1;points=[];align=center;image;fontSize=12;image=img/lib/azure2/iot/Function_Apps.svg;" parent="1" vertex="1">
          <mxGeometry x="610" y="110" width="68" height="60" as="geometry" />
        </mxCell>
        <mxCell id="1uc-oRXtR6JdlQ7MqybF-12" value="Azure Functions&lt;br&gt;(Email)" style="aspect=fixed;html=1;points=[];align=center;image;fontSize=12;image=img/lib/azure2/iot/Function_Apps.svg;" parent="1" vertex="1">
          <mxGeometry x="610" y="270" width="68" height="60" as="geometry" />
        </mxCell>
        <mxCell id="1uc-oRXtR6JdlQ7MqybF-21" style="edgeStyle=orthogonalEdgeStyle;rounded=0;orthogonalLoop=1;jettySize=auto;html=1;entryX=0;entryY=0.617;entryDx=0;entryDy=0;entryPerimeter=0;fontSize=14;" parent="1" source="1uc-oRXtR6JdlQ7MqybF-20" target="1uc-oRXtR6JdlQ7MqybF-11" edge="1">
          <mxGeometry relative="1" as="geometry">
            <Array as="points">
              <mxPoint x="580" y="218" />
              <mxPoint x="580" y="147" />
            </Array>
          </mxGeometry>
        </mxCell>
        <mxCell id="1uc-oRXtR6JdlQ7MqybF-22" style="edgeStyle=orthogonalEdgeStyle;rounded=0;orthogonalLoop=1;jettySize=auto;html=1;fontSize=14;" parent="1" source="1uc-oRXtR6JdlQ7MqybF-20" target="1uc-oRXtR6JdlQ7MqybF-12" edge="1">
          <mxGeometry relative="1" as="geometry">
            <Array as="points">
              <mxPoint x="580" y="218" />
              <mxPoint x="580" y="300" />
            </Array>
          </mxGeometry>
        </mxCell>
        <mxCell id="1uc-oRXtR6JdlQ7MqybF-20" value="Change &lt;br&gt;Feed" style="aspect=fixed;html=1;points=[];align=center;image;fontSize=12;image=img/lib/azure2/general/Controls_Horizontal.svg;" parent="1" vertex="1">
          <mxGeometry x="459" y="198" width="49.29" height="40" as="geometry" />
        </mxCell>
        <mxCell id="qdzKdqeAsQLfzOVaVIGU-3" value="" style="sketch=0;html=1;dashed=0;whitespace=wrap;fillColor=#2875E2;strokeColor=#ffffff;points=[[0.005,0.63,0],[0.1,0.2,0],[0.9,0.2,0],[0.5,0,0],[0.995,0.63,0],[0.72,0.99,0],[0.5,1,0],[0.28,0.99,0]];shape=mxgraph.kubernetes.icon;prIcon=api;fontSize=14;" vertex="1" parent="1">
          <mxGeometry x="178" y="175" width="88" height="76" as="geometry" />
        </mxCell>
      </root>
    </mxGraphModel>
  </diagram>
</mxfile>
